<svg xmlns="http://www.w3.org/2000/svg" viewBox="0 0 32 32" width="32" height="32">
  <defs>
    <linearGradient id="grad" x1="0%" y1="0%" x2="100%" y2="100%">
      <stop offset="0%" style="stop-color:#667eea;stop-opacity:1" />
      <stop offset="100%" style="stop-color:#764ba2;stop-opacity:1" />
    </linearGradient>
  </defs>
  
  <!-- Background circle -->
  <circle cx="16" cy="16" r="15" fill="url(#grad)" stroke="#fff" stroke-width="1"/>
  
  <!-- Cloud shape -->
  <path d="M8 18c-1.1 0-2-.9-2-2s.9-2 2-2c.2-1.7 1.6-3 3.3-3 1.4 0 2.6.8 3.2 2 .3-.1.6-.1 1-.1 2.2 0 4 1.8 4 4s-1.8 4-4 4H8z" fill="white" opacity="0.9"/>
  
  <!-- Download arrow -->
  <path d="M16 12v6m-2-2l2 2 2-2" stroke="white" stroke-width="1.5" stroke-linecap="round" stroke-linejoin="round" fill="none"/>
  
  <!-- Download line at bottom -->
  <line x1="12" y1="22" x2="20" y2="22" stroke="white" stroke-width="1.5" stroke-linecap="round"/>
</svg> 